<svg width="24" height="24" viewBox="0 0 24 24" fill="none" xmlns="http://www.w3.org/2000/svg">
<path d="M5.65188 1.75C3.6289 1.75 2 3.3789 2 5.40187V18.0981C2 20.1211 3.6289 21.75 5.65188 21.75H12.5331V13.9312H10.4656V11.1162H12.5331V8.71125C12.5331 6.82175 13.7547 5.08687 16.5688 5.08687C17.7081 5.08687 18.5506 5.19625 18.5506 5.19625L18.4844 7.82501C18.4844 7.82501 17.6251 7.81689 16.6875 7.81689C15.6727 7.81689 15.51 8.28445 15.51 9.06065V11.1163H18.565L18.4319 13.9313H15.51V21.75H18.3481C20.3711 21.75 22 20.1211 22 18.0981V5.40189C22 3.37892 20.3711 1.75002 18.3481 1.75002H5.65186L5.65188 1.75Z" fill="#2997F9"/>
</svg>
