<svg width="24" height="24" viewBox="0 0 24 24" fill="none" xmlns="http://www.w3.org/2000/svg">
<path d="M23.4785 4.94849C23.2588 3.57408 21.9937 2.373 20.5936 2.21366C14.8798 1.59526 9.11537 1.59545 3.40169 2.21422C2.00658 2.373 0.741483 3.57386 0.520685 4.95349C-0.173824 9.45997 -0.17356 14.0452 0.521467 18.5516C0.741372 19.926 2.00658 21.127 3.40638 21.2861C6.26033 21.5953 9.1291 21.7502 12 21.75C14.8709 21.7502 17.7396 21.5953 20.5936 21.2861L20.5981 21.2856C21.9934 21.1271 23.2587 19.9261 23.4794 18.5464C24.1738 14.04 24.1735 9.45481 23.4785 4.94849ZM16.0735 12.489L10.7073 16.0422C10.5726 16.1313 10.4161 16.1825 10.2544 16.1903C10.0927 16.198 9.93193 16.1621 9.78921 16.0862C9.6465 16.0103 9.52719 15.8974 9.444 15.7595C9.36081 15.6216 9.31687 15.4639 9.31685 15.3031V8.19676C9.31686 8.03598 9.3608 7.87821 9.44399 7.74028C9.52718 7.60235 9.64651 7.48943 9.78924 7.41357C9.93197 7.33771 10.0928 7.30175 10.2545 7.30952C10.4162 7.31729 10.5727 7.36851 10.7074 7.4577L16.0736 11.0109C16.1961 11.092 16.2965 11.2019 16.366 11.3308C16.4355 11.4597 16.4718 11.6037 16.4718 11.7499C16.4718 11.8962 16.4355 12.0401 16.366 12.169C16.2965 12.298 16.1961 12.4079 16.0736 12.489H16.0735Z" fill="#2997F9"/>
</svg>
