<svg width="25" height="25" viewBox="0 0 25 25" fill="none" xmlns="http://www.w3.org/2000/svg">
<path fill-rule="evenodd" clip-rule="evenodd" d="M6.25 2.08043C3.94882 2.08043 2.08335 3.9459 2.08335 6.24708V18.747C2.08335 21.0482 3.94882 22.9136 6.25 22.9136H18.7499C21.0511 22.9136 22.9166 21.0482 22.9166 18.747V6.24708C22.9166 3.9459 21.0511 2.08043 18.7499 2.08043H6.25ZM18.97 6.24943H16.734L13.0055 10.4591L9.82149 6.24943H5.20832L10.7013 13.4437L5.49999 19.4228H7.73609L11.7708 14.8145L15.2951 19.4228H19.7964L14.0604 11.8396L18.97 6.24943ZM17.1909 18.1103H15.9513L7.83817 7.51329H9.17011L17.1909 18.1103Z" fill="#2997F9"/>
</svg>
