<svg width="17" height="17" viewBox="0 0 17 17" fill="none" xmlns="http://www.w3.org/2000/svg">
<path d="M8.44688 0.531266C4.99378 0.531266 2.04535 2.7625 0.956298 5.84374H15.9906C14.875 2.7625 11.9266 0.531266 8.44688 0.531266Z" fill="#FF9933"/>
<path d="M8.44688 16.4685C11.9266 16.4685 14.875 14.2639 15.964 11.1561H0.956298C2.04535 14.2639 4.99378 16.4685 8.44688 16.4685Z" fill="#128807"/>
<path d="M0.956307 5.84367C0.664121 6.6671 0.504747 7.57022 0.504747 8.49991C0.504747 9.42959 0.664121 10.3327 0.956307 11.1561H15.9906C16.2828 10.3327 16.4422 9.42959 16.4422 8.49991C16.4422 7.57022 16.2828 6.6671 15.9906 5.84367H0.956307Z" fill="white"/>
<path d="M8.44689 10.6249C9.62049 10.6249 10.5719 9.67352 10.5719 8.49993C10.5719 7.32633 9.62049 6.37494 8.44689 6.37494C7.27329 6.37494 6.3219 7.32633 6.3219 8.49993C6.3219 9.67352 7.27329 10.6249 8.44689 10.6249Z" fill="#428BC1"/>
<path d="M8.44687 10.3593C9.47376 10.3593 10.3062 9.52683 10.3062 8.49993C10.3062 7.47304 9.47376 6.64057 8.44687 6.64057C7.41997 6.64057 6.5875 7.47304 6.5875 8.49993C6.5875 9.52683 7.41997 10.3593 8.44687 10.3593Z" fill="white"/>
<path d="M7.75629 6.90619C7.82964 6.90619 7.8891 6.84673 7.8891 6.77338C7.8891 6.70003 7.82964 6.64057 7.75629 6.64057C7.68294 6.64057 7.62348 6.70003 7.62348 6.77338C7.62348 6.84673 7.68294 6.90619 7.75629 6.90619Z" fill="#010088"/>
<path d="M7.33126 7.14534C7.40461 7.14534 7.46407 7.08588 7.46407 7.01253C7.46407 6.93918 7.40461 6.87972 7.33126 6.87972C7.25791 6.87972 7.19845 6.93918 7.19845 7.01253C7.19845 7.08588 7.25791 7.14534 7.33126 7.14534Z" fill="#010088"/>
<path d="M6.98598 7.49069C7.05933 7.49069 7.11879 7.43123 7.11879 7.35788C7.11879 7.28453 7.05933 7.22506 6.98598 7.22506C6.91263 7.22506 6.85316 7.28453 6.85316 7.35788C6.85316 7.43123 6.91263 7.49069 6.98598 7.49069Z" fill="#010088"/>
<path d="M6.74689 7.91575C6.82024 7.91575 6.87971 7.85629 6.87971 7.78294C6.87971 7.70959 6.82024 7.65013 6.74689 7.65013C6.67354 7.65013 6.61408 7.70959 6.61408 7.78294C6.61408 7.85629 6.67354 7.91575 6.74689 7.91575Z" fill="#010088"/>
<path d="M6.61408 8.39379C6.68743 8.39379 6.74689 8.33433 6.74689 8.26098C6.74689 8.18763 6.68743 8.12816 6.61408 8.12816C6.54073 8.12816 6.48127 8.18763 6.48127 8.26098C6.48127 8.33433 6.54073 8.39379 6.61408 8.39379Z" fill="#010088"/>
<path d="M6.61408 8.87183C6.68743 8.87183 6.74689 8.81236 6.74689 8.73901C6.74689 8.66566 6.68743 8.6062 6.61408 8.6062C6.54073 8.6062 6.48127 8.66566 6.48127 8.73901C6.48127 8.81236 6.54073 8.87183 6.61408 8.87183Z" fill="#010088"/>
<path d="M6.74689 9.35012C6.82024 9.35012 6.87971 9.29066 6.87971 9.21731C6.87971 9.14396 6.82024 9.08449 6.74689 9.08449C6.67354 9.08449 6.61408 9.14396 6.61408 9.21731C6.61408 9.29066 6.67354 9.35012 6.74689 9.35012Z" fill="#010088"/>
<path d="M6.98598 9.77518C7.05933 9.77518 7.11879 9.71572 7.11879 9.64237C7.11879 9.56902 7.05933 9.50956 6.98598 9.50956C6.91263 9.50956 6.85316 9.56902 6.85316 9.64237C6.85316 9.71572 6.91263 9.77518 6.98598 9.77518Z" fill="#010088"/>
<path d="M7.33126 10.1203C7.40461 10.1203 7.46407 10.0608 7.46407 9.98746C7.46407 9.91411 7.40461 9.85465 7.33126 9.85465C7.25791 9.85465 7.19845 9.91411 7.19845 9.98746C7.19845 10.0608 7.25791 10.1203 7.33126 10.1203Z" fill="#010088"/>
<path d="M7.75629 10.3594C7.82964 10.3594 7.8891 10.3 7.8891 10.2266C7.8891 10.1533 7.82964 10.0938 7.75629 10.0938C7.68294 10.0938 7.62348 10.1533 7.62348 10.2266C7.62348 10.3 7.68294 10.3594 7.75629 10.3594Z" fill="#010088"/>
<path d="M8.20784 10.4656C8.28119 10.4656 8.34065 10.4062 8.34065 10.3328C8.34065 10.2595 8.28119 10.2 8.20784 10.2C8.13449 10.2 8.07503 10.2595 8.07503 10.3328C8.07503 10.4062 8.13449 10.4656 8.20784 10.4656Z" fill="#010088"/>
<path d="M8.57968 10.3594C8.57968 10.2797 8.63281 10.2266 8.68593 10.2C8.76562 10.2 8.81874 10.2531 8.84531 10.3062C8.84531 10.3859 8.79218 10.4391 8.73906 10.4656C8.63281 10.4922 8.57968 10.4391 8.57968 10.3594Z" fill="#010088"/>
<path d="M9.16405 10.3594C9.2374 10.3594 9.29686 10.3 9.29686 10.2266C9.29686 10.1533 9.2374 10.0938 9.16405 10.0938C9.0907 10.0938 9.03123 10.1533 9.03123 10.2266C9.03123 10.3 9.0907 10.3594 9.16405 10.3594Z" fill="#010088"/>
<path d="M9.58905 10.1203C9.6624 10.1203 9.72186 10.0608 9.72186 9.98746C9.72186 9.91411 9.6624 9.85465 9.58905 9.85465C9.5157 9.85465 9.45623 9.91411 9.45623 9.98746C9.45623 10.0608 9.5157 10.1203 9.58905 10.1203Z" fill="#010088"/>
<path d="M9.93439 9.77518C10.0077 9.77518 10.0672 9.71572 10.0672 9.64237C10.0672 9.56902 10.0077 9.50956 9.93439 9.50956C9.86104 9.50956 9.80158 9.56902 9.80158 9.64237C9.80158 9.71572 9.86104 9.77518 9.93439 9.77518Z" fill="#010088"/>
<path d="M10.1734 9.35012C10.2468 9.35012 10.3062 9.29066 10.3062 9.21731C10.3062 9.14396 10.2468 9.08449 10.1734 9.08449C10.1001 9.08449 10.0406 9.14396 10.0406 9.21731C10.0406 9.29066 10.1001 9.35012 10.1734 9.35012Z" fill="#010088"/>
<path d="M10.3063 8.87183C10.3796 8.87183 10.4391 8.81236 10.4391 8.73901C10.4391 8.66566 10.3796 8.6062 10.3063 8.6062C10.2329 8.6062 10.1735 8.66566 10.1735 8.73901C10.1735 8.81236 10.2329 8.87183 10.3063 8.87183Z" fill="#010088"/>
<path d="M10.3062 8.39379C10.2266 8.39379 10.1734 8.34066 10.1469 8.28754C10.1469 8.20785 10.2 8.15473 10.2531 8.12816C10.3328 8.12816 10.3859 8.18129 10.4125 8.23441C10.4391 8.3141 10.3859 8.36723 10.3062 8.39379Z" fill="#010088"/>
<path d="M10.1734 7.91575C10.2468 7.91575 10.3062 7.85629 10.3062 7.78294C10.3062 7.70959 10.2468 7.65013 10.1734 7.65013C10.1001 7.65013 10.0406 7.70959 10.0406 7.78294C10.0406 7.85629 10.1001 7.91575 10.1734 7.91575Z" fill="#010088"/>
<path d="M9.93439 7.49069C10.0077 7.49069 10.0672 7.43123 10.0672 7.35788C10.0672 7.28453 10.0077 7.22506 9.93439 7.22506C9.86104 7.22506 9.80158 7.28453 9.80158 7.35788C9.80158 7.43123 9.86104 7.49069 9.93439 7.49069Z" fill="#010088"/>
<path d="M9.58905 7.14534C9.6624 7.14534 9.72186 7.08588 9.72186 7.01253C9.72186 6.93918 9.6624 6.87972 9.58905 6.87972C9.5157 6.87972 9.45623 6.93918 9.45623 7.01253C9.45623 7.08588 9.5157 7.14534 9.58905 7.14534Z" fill="#010088"/>
<path d="M9.2969 6.82666C9.27034 6.90635 9.19065 6.93291 9.11096 6.90635C9.03128 6.87979 9.00471 6.8001 9.03128 6.72041C9.05784 6.64072 9.13753 6.61416 9.21721 6.64073C9.2969 6.69385 9.32346 6.77354 9.2969 6.82666ZM8.81878 6.66729C8.81878 6.74697 8.73909 6.8001 8.6594 6.77354C8.57972 6.77354 8.52659 6.69385 8.55315 6.61416C8.55315 6.53448 8.63284 6.48135 8.71253 6.50791C8.79222 6.53448 8.84534 6.61416 8.81878 6.66729ZM8.34066 6.64073C8.34066 6.72041 8.28753 6.77354 8.23441 6.8001C8.15472 6.8001 8.10159 6.74697 8.07503 6.69385C8.07503 6.61416 8.12816 6.56104 8.18128 6.53448C8.26097 6.50791 8.34066 6.56104 8.34066 6.64073Z" fill="#010088"/>
<path d="M8.44692 8.89855C8.66697 8.89855 8.84535 8.72016 8.84535 8.50011C8.84535 8.28006 8.66697 8.10168 8.44692 8.10168C8.22687 8.10168 8.04848 8.28006 8.04848 8.50011C8.04848 8.72016 8.22687 8.89855 8.44692 8.89855Z" fill="#010088"/>
<path d="M8.44689 6.64057L8.39376 7.78275L8.44689 8.49993L8.52657 7.78275L8.44689 6.64057ZM7.96877 6.69369L8.20783 7.83588L8.44689 8.49993L8.34064 7.78275L7.96877 6.69369Z" fill="#010088"/>
<path d="M7.51722 6.87972L8.04847 7.91565L8.4469 8.50002L8.15472 7.83596L7.51722 6.87972ZM7.14535 7.1719L7.91566 8.04846L8.4469 8.50002L7.99534 7.94221L7.14535 7.1719Z" fill="#010088"/>
<path d="M6.85316 7.57041L7.80941 8.20791L8.44691 8.50009L7.86253 8.0751L6.85316 7.57041Z" fill="#010088"/>
<path d="M6.66722 8.02196L7.75628 8.36727L8.4469 8.50009L7.78284 8.26102L6.66722 8.02196ZM6.58753 8.50009L7.75628 8.55321L8.4469 8.50009L7.75628 8.44696L6.58753 8.50009Z" fill="#010088"/>
<path d="M6.66718 8.97812L7.7828 8.73906L8.44686 8.5L7.75624 8.63281L6.66718 8.97812ZM6.85312 9.42968L7.86249 8.925L8.44686 8.5L7.80936 8.79219L6.85312 9.42968Z" fill="#010088"/>
<path d="M7.14535 9.80156L7.99534 9.05781L8.4469 8.5L7.91566 8.95156L7.14535 9.80156ZM7.51722 10.1203L8.15472 9.1375L8.4469 8.5L8.04847 9.08437L7.51722 10.1203Z" fill="#010088"/>
<path d="M7.96877 10.3062L8.34064 9.21718L8.44689 8.5L8.20783 9.16406L7.96877 10.3062ZM8.44689 10.3594L8.52657 9.21718L8.44689 8.5L8.39376 9.21718L8.44689 10.3594ZM8.92501 10.3062L8.71251 9.16406L8.44689 8.5L8.5797 9.21718L8.92501 10.3062Z" fill="#010088"/>
<path d="M9.37655 10.1203L8.87187 9.08437L8.44687 8.5L8.76562 9.16406L9.37655 10.1203ZM9.77499 9.80156L9.00468 8.95156L8.44687 8.5L8.92499 9.05781L9.77499 9.80156Z" fill="#010088"/>
<path d="M10.0672 9.42977L9.11093 8.79227L8.44687 8.50008L9.03124 8.92508L10.0672 9.42977ZM10.2531 8.97821L9.16405 8.6329L8.44687 8.50008L9.13749 8.73915L10.2531 8.97821ZM10.3062 8.50008L9.16405 8.4204L8.44687 8.50008L9.16405 8.55321L10.3062 8.50008ZM10.2531 8.02196L9.13749 8.26102L8.44687 8.50008L9.16405 8.36727L10.2531 8.02196Z" fill="#010088"/>
<path d="M10.0672 7.57045L9.03124 8.07513L8.44687 8.50013L9.11093 8.20795L10.0672 7.57045ZM9.77499 7.19858L8.92499 7.94232L8.44687 8.50013L9.00468 8.04857L9.77499 7.19858Z" fill="#010088"/>
<path d="M9.37655 6.87972L8.76562 7.86252L8.44687 8.50002L8.87187 7.91565L9.37655 6.87972Z" fill="#010088"/>
<path d="M8.95155 6.6938L8.57968 7.78285L8.44687 8.50004L8.71249 7.83598L8.95155 6.6938Z" fill="#010088"/>
</svg>
