<svg width="24" height="24" viewBox="0 0 24 24" fill="none" xmlns="http://www.w3.org/2000/svg">
<path d="M19.7778 1.75C20.3671 1.75 20.9324 1.98413 21.3491 2.40087C21.7659 2.81762 22 3.38285 22 3.97222V19.5278C22 20.1171 21.7659 20.6824 21.3491 21.0991C20.9324 21.5159 20.3671 21.75 19.7778 21.75H4.22222C3.63285 21.75 3.06762 21.5159 2.65087 21.0991C2.23413 20.6824 2 20.1171 2 19.5278V3.97222C2 3.38285 2.23413 2.81762 2.65087 2.40087C3.06762 1.98413 3.63285 1.75 4.22222 1.75H19.7778ZM19.2222 18.9722V13.0833C19.2222 12.1227 18.8406 11.2013 18.1613 10.522C17.482 9.84274 16.5607 9.46111 15.6 9.46111C14.6556 9.46111 13.5556 10.0389 13.0222 10.9056V9.67222H9.92222V18.9722H13.0222V13.4944C13.0222 12.6389 13.7111 11.9389 14.5667 11.9389C14.9792 11.9389 15.3749 12.1028 15.6666 12.3945C15.9583 12.6862 16.1222 13.0819 16.1222 13.4944V18.9722H19.2222ZM6.31111 7.92778C6.80618 7.92778 7.28098 7.73111 7.63104 7.38104C7.98111 7.03098 8.17778 6.55618 8.17778 6.06111C8.17778 5.02778 7.34444 4.18333 6.31111 4.18333C5.81309 4.18333 5.33547 4.38117 4.98332 4.73332C4.63117 5.08547 4.43333 5.56309 4.43333 6.06111C4.43333 7.09444 5.27778 7.92778 6.31111 7.92778ZM7.85556 18.9722V9.67222H4.77778V18.9722H7.85556Z" fill="#2997F9"/>
</svg>
