<svg width="24" height="24" viewBox="0 0 24 24" fill="none" xmlns="http://www.w3.org/2000/svg">
<path d="M12 22.75C5.92265 22.75 1 18.0438 1 12.25C1 6.45622 5.92265 1.75 12 1.75H20.2449C21.7643 1.75 23 2.93644 23 4.37994V12.2698C23 18.0438 18.0773 22.75 12 22.75Z" fill="#2997F9"/>
<path d="M12 17.51C14.046 17.51 15.8287 16.4422 16.7606 14.8801C15.8084 13.3179 14.0258 12.2699 12 12.2699C9.95393 12.2699 8.17124 13.3377 7.23938 14.8998C8.1915 16.462 9.97419 17.51 12 17.51ZM14.1473 9.06651C14.1473 10.2134 13.1749 11.1428 11.9797 11.1428C10.7845 11.1428 9.81212 10.2134 9.81212 9.06651C9.81212 7.91961 10.7845 6.99023 11.9797 6.99023C13.1749 6.99023 14.1473 7.91961 14.1473 9.06651Z" fill="black"/>
</svg>
